<?xml version="1.0" standalone="no"?><!DOCTYPE svg PUBLIC "-//W3C//DTD SVG 1.1//EN" "http://www.w3.org/Graphics/SVG/1.1/DTD/svg11.dtd"><svg t="1590910276337" class="icon" viewBox="0 0 1024 1024" version="1.1" xmlns="http://www.w3.org/2000/svg" p-id="23871" id="mx_n_1590910276339" xmlns:xlink="http://www.w3.org/1999/xlink" width="300" height="300"><defs><style type="text/css"></style></defs><path d="M512 782.123c-58.764 0-114.011-22.884-155.563-64.437C314.884 676.134 292 620.887 292 562.123v-100c0-58.764 22.884-114.011 64.437-155.563s96.8-64.437 155.563-64.437 114.011 22.884 155.563 64.437S732 403.359 732 462.123v100c0 58.764-22.884 114.011-64.437 155.563-41.552 41.553-96.799 64.437-155.563 64.437z m0-500c-99.252 0-180 80.748-180 180v100c0 99.252 80.748 180 180 180s180-80.748 180-180v-100c0-99.252-80.748-180-180-180z" fill="#7f690e" p-id="23872"></path><path d="M562 618.726H462a19.998 19.998 0 0 1-17.32-10l-50-86.603a19.998 19.998 0 0 1 0-20l50-86.603a19.999 19.999 0 0 1 17.32-10h100a19.998 19.998 0 0 1 17.32 10l50 86.603a19.998 19.998 0 0 1 0 20l-50 86.603a19.998 19.998 0 0 1-17.32 10z m-88.453-40h76.906l38.453-66.603-38.453-66.603h-76.906l-38.453 66.603 38.453 66.603z" fill="#7f690e" p-id="23873"></path><path d="M712 532.123H612c-11.046 0-20-8.954-20-20s8.954-20 20-20h100c11.046 0 20 8.954 20 20s-8.954 20-20 20zM412 532.123H312c-11.046 0-20-8.954-20-20s8.954-20 20-20h100c11.046 0 20 8.954 20 20s-8.954 20-20 20zM562 445.521a19.943 19.943 0 0 1-14.143-5.858c-7.81-7.811-7.81-20.474 0-28.284l97.525-97.525c7.811-7.811 20.475-7.811 28.285 0 7.81 7.81 7.81 20.474 0 28.284l-97.525 97.525A19.939 19.939 0 0 1 562 445.521zM462 445.521a19.943 19.943 0 0 1-14.143-5.858l-97.525-97.525c-7.81-7.811-7.81-20.474 0-28.284 7.811-7.811 20.475-7.811 28.285 0l97.525 97.525c7.81 7.811 7.81 20.474 0 28.284A19.939 19.939 0 0 1 462 445.521zM659.635 716.36a19.943 19.943 0 0 1-14.143-5.858l-97.635-97.635c-7.81-7.811-7.81-20.474 0-28.284 7.811-7.811 20.475-7.811 28.285 0l97.635 97.635c7.81 7.811 7.81 20.474 0 28.284a19.934 19.934 0 0 1-14.142 5.858zM364.365 716.36a19.943 19.943 0 0 1-14.143-5.858c-7.81-7.811-7.81-20.474 0-28.284l97.635-97.635c7.811-7.811 20.475-7.811 28.285 0 7.81 7.811 7.81 20.474 0 28.284l-97.635 97.635a19.933 19.933 0 0 1-14.142 5.858z" fill="#7f690e" p-id="23874"></path></svg>