<?xml version="1.0" standalone="no"?><!DOCTYPE svg PUBLIC "-//W3C//DTD SVG 1.1//EN" "http://www.w3.org/Graphics/SVG/1.1/DTD/svg11.dtd"><svg t="1589511885530" class="icon" viewBox="0 0 1024 1024" version="1.1" xmlns="http://www.w3.org/2000/svg" p-id="2141" xmlns:xlink="http://www.w3.org/1999/xlink" width="200" height="200"><defs><style type="text/css"></style></defs><path d="M508.648107 245.76a256.24576 256.24576 0 0 0-256.054614 256.06144v247.227733a27.15648 27.15648 0 0 0 26.487467 26.487467h35.314347a27.15648 27.15648 0 0 0 26.487466-26.487467v-17.660586a8.342187 8.342187 0 0 1 8.82688-8.82688h35.321174a8.342187 8.342187 0 0 1 8.82688 8.82688v17.660586a27.15648 27.15648 0 0 0 26.487466 26.487467h35.321174a27.15648 27.15648 0 0 0 26.487466-26.487467v-17.660586a8.342187 8.342187 0 0 1 8.82688-8.82688h35.321174a8.342187 8.342187 0 0 1 8.82688 8.82688v17.660586a27.15648 27.15648 0 0 0 26.487466 26.487467h35.321174a27.15648 27.15648 0 0 0 26.487466-26.487467v-17.660586a8.342187 8.342187 0 0 1 8.82688-8.82688h35.321174a8.342187 8.342187 0 0 1 8.82688 8.82688v17.660586a27.15648 27.15648 0 0 0 26.487466 26.487467h35.30752a27.15648 27.15648 0 0 0 26.487467-26.487467V501.82144A256.24576 256.24576 0 0 0 508.648107 245.76z m-61.801814 204.847787a11.73504 11.73504 0 0 1-7.0656 8.82688 36.08576 36.08576 0 0 0-28.255573 35.321173 35.648853 35.648853 0 0 0 28.255573 33.553067 9.680213 9.680213 0 0 1 7.0656 10.594986 53.248 53.248 0 0 1-52.974933 42.379947 52.032853 52.032853 0 0 1-52.988587-52.974933V422.352213a52.974933 52.974933 0 1 1 105.956694 0v28.255574z m211.913387 0a11.73504 11.73504 0 0 1-7.072427 8.82688 36.08576 36.08576 0 0 0-28.255573 35.321173 35.648853 35.648853 0 0 0 28.255573 33.553067 9.680213 9.680213 0 0 1 7.0656 10.594986 53.248 53.248 0 0 1-52.974933 42.379947 52.032853 52.032853 0 0 1-52.974933-52.974933V422.352213a52.974933 52.974933 0 0 1 105.956693 0v28.255574z" opacity=".998" p-id="2142" fill="#d81e06"></path></svg>